<?xml version="1.0" standalone="no"?>
<!DOCTYPE svg PUBLIC "-//W3C//DTD SVG 20010904//EN"
 "http://www.w3.org/TR/2001/REC-SVG-20010904/DTD/svg10.dtd">
<svg version="1.0" xmlns="http://www.w3.org/2000/svg"
 width="1024.000000pt" height="1024.000000pt" viewBox="0 0 1024.000000 1024.000000"
 preserveAspectRatio="xMidYMid meet">
<metadata>
Created by potrace 1.16, written by Peter Selinger 2001-2019
</metadata>
<g transform="translate(0.000000,1024.000000) scale(0.100000,-0.100000)"
fill="#000000" stroke="none">
<path d="M4880 9230 c-91 -5 -223 -17 -295 -29 -71 -11 -143 -22 -160 -24 -81
-12 -249 -49 -325 -70 -47 -14 -130 -37 -185 -52 -120 -33 -188 -59 -410 -160
-265 -120 -376 -180 -575 -314 -183 -123 -288 -202 -385 -290 -28 -25 -66 -59
-85 -74 -143 -114 -439 -450 -597 -677 -85 -121 -237 -376 -305 -510 -100
-197 -220 -504 -269 -686 -21 -80 -95 -428 -110 -519 -19 -114 -36 -451 -34
-665 3 -199 19 -397 45 -525 6 -27 17 -86 25 -130 19 -94 42 -198 54 -240 69
-230 149 -448 213 -585 45 -94 152 -309 176 -351 36 -65 47 -83 55 -93 15 -20
72 -110 91 -143 18 -31 78 -111 200 -272 27 -35 86 -102 130 -150 127 -135
120 -124 102 -159 -9 -17 -31 -43 -49 -59 -46 -38 -120 -139 -140 -189 -44
-114 -49 -158 -48 -439 2 -291 6 -328 56 -429 33 -68 137 -182 203 -225 27
-17 82 -44 123 -59 l74 -27 2655 0 c2561 0 2657 1 2715 19 160 49 284 153 353
296 72 146 83 267 63 640 -9 157 -22 203 -86 305 -32 50 -50 70 -139 154 l-47
44 68 71 c64 66 115 122 187 206 61 71 237 322 309 441 299 497 480 1038 542
1623 20 180 20 602 0 801 -95 984 -599 1944 -1366 2603 -97 84 -399 300 -512
368 -279 166 -680 344 -932 416 -171 48 -232 64 -305 77 -36 7 -105 21 -155
31 -253 53 -534 68 -925 50z m501 -220 c518 -40 938 -159 1424 -402 228 -114
427 -239 431 -271 2 -17 -16 -457 -32 -752 -6 -119 -9 -132 -31 -156 -19 -21
-25 -41 -30 -97 -4 -51 -11 -76 -24 -88 -17 -15 -19 -33 -19 -153 0 -75 4
-152 10 -171 5 -19 32 -57 60 -85 50 -51 51 -52 66 -151 29 -184 31 -215 18
-212 -12 3 -187 155 -295 256 l-56 52 -342 0 -342 0 -232 139 c-128 76 -270
161 -317 188 -47 27 -190 112 -319 188 l-235 138 -33 -19 c-168 -97 -742 -437
-793 -469 -36 -22 -113 -69 -172 -103 l-106 -62 -346 0 c-210 0 -347 -4 -351
-10 -12 -20 -357 -301 -362 -296 -19 19 122 484 158 521 11 11 12 325 2 325
-5 0 -21 -19 -38 -43 l-30 -42 -3 163 c-3 164 -4 171 -39 160 -11 -4 -21 80
-22 175 -1 74 -2 77 -25 77 l-24 0 -7 160 c-4 88 -12 163 -17 166 -5 3 -24 3
-43 0 l-33 -7 -7 -159 c-7 -143 -9 -160 -25 -160 -24 0 -30 -28 -30 -147 l0
-103 -30 0 -30 0 0 -162 0 -161 -37 48 -38 48 -3 -158 -3 -158 42 -81 c23 -45
53 -99 67 -121 l25 -39 -1 -429 c0 -430 -7 -581 -23 -571 -5 3 -9 0 -9 -5 0
-6 -9 -11 -20 -11 -11 0 -20 -5 -20 -11 0 -6 -7 -9 -15 -6 -8 4 -18 1 -22 -6
-13 -22 -21 35 -22 166 -1 71 -6 137 -11 148 -24 44 -55 49 -310 49 -280 0
-302 -5 -319 -67 -6 -21 -11 -132 -11 -254 l0 -216 -82 -2 c-90 -2 -110 -9
-136 -48 -15 -25 -17 -69 -20 -482 -2 -251 -5 -457 -7 -459 -2 -2 -48 0 -102
5 l-98 8 -3 58 -3 57 56 0 55 0 0 85 c0 98 18 88 -146 85 l-101 -1 -7 28 c-14
56 -19 586 -7 725 60 711 329 1377 800 1978 115 147 433 473 546 561 352 274
624 433 991 582 390 159 708 233 1159 270 95 8 382 6 506 -3z m1971 -1133 c2
-206 6 -370 10 -363 4 6 8 -6 8 -26 0 -36 -2 -38 -31 -38 l-32 0 7 383 c4 210
10 397 13 416 15 88 23 -25 25 -372z m244 203 c448 -408 846 -996 1037 -1530
96 -269 168 -566 198 -815 16 -124 19 -712 6 -808 l-9 -58 -61 2 c-34 1 -90 1
-124 1 l-63 -2 0 -85 0 -85 55 0 55 0 0 -59 0 -58 -111 -7 c-61 -4 -114 -4
-118 -1 -3 4 -7 331 -9 728 -1 397 -4 731 -7 743 -6 25 -33 57 -62 72 -14 8
-79 12 -177 12 l-156 0 0 209 c0 115 -4 221 -9 234 -14 36 -39 41 -191 38
-189 -3 -174 21 -180 -294 -3 -175 -9 -259 -17 -274 -7 -12 -13 -50 -13 -85 0
-66 -18 -121 -21 -63 -1 17 -3 23 -6 14 -2 -11 -11 -15 -23 -12 -13 4 -20 -1
-23 -19 l-4 -23 -8 24 c-8 23 -9 24 -16 5 -4 -10 -9 -32 -10 -49 -7 -85 -17
236 -18 580 l-1 389 43 44 42 43 3 158 3 159 -30 35 c-27 30 -31 42 -31 95 0
49 -5 66 -23 89 -23 27 -25 42 -41 303 -30 470 -30 473 -18 469 7 -2 69 -56
138 -119z m-2428 -825 c26 -14 68 -37 93 -52 152 -92 386 -231 679 -403 227
-133 464 -273 515 -303 28 -17 165 -100 305 -185 140 -85 272 -164 292 -176
21 -11 38 -23 38 -26 0 -3 -17 -23 -39 -44 l-38 -38 -74 38 c-41 20 -164 91
-274 156 -110 66 -270 162 -355 213 -85 50 -216 127 -290 170 -74 42 -166 96
-205 120 -38 23 -113 67 -165 97 -148 87 -399 236 -460 274 -30 19 -64 34 -76
34 -11 0 -40 -13 -65 -29 -24 -15 -145 -88 -269 -161 -124 -73 -268 -159 -320
-190 -52 -31 -140 -83 -195 -115 -55 -32 -192 -113 -305 -180 -343 -204 -489
-289 -623 -364 l-128 -72 -40 38 c-21 20 -39 40 -39 44 0 4 26 22 58 41 31 19
165 100 297 180 132 80 303 182 380 228 250 147 825 490 1025 610 107 65 203
118 213 119 10 1 39 -10 65 -24z m-2128 -150 l0 -35 -164 0 c-161 0 -164 0
-170 23 -13 48 -16 47 164 47 l170 0 0 -35z m4460 -37 c0 -72 -14 -118 -37
-125 -8 -3 -13 14 -15 54 -3 57 -3 58 -35 61 l-33 3 0 -70 c0 -63 -2 -71 -19
-71 -45 0 -51 9 -51 76 l0 64 -35 0 -34 0 -3 -65 -3 -65 -22 15 c-21 15 -23
24 -23 106 l0 89 155 0 155 0 0 -72z m-2170 -219 c113 -67 270 -160 350 -207
80 -47 165 -97 190 -112 25 -15 106 -62 180 -105 150 -88 577 -344 656 -394
37 -23 72 -35 125 -43 41 -6 75 -12 77 -13 2 -2 -13 -25 -32 -53 -33 -45 -36
-56 -36 -116 l0 -66 -1730 0 -1730 0 0 71 c0 66 -3 75 -35 119 l-35 47 69 7
c68 6 75 9 403 204 183 110 387 230 453 269 240 140 573 338 715 424 80 49
152 89 160 89 9 0 108 -55 220 -121z m-1710 -223 c-132 -126 -233 -208 -385
-309 -215 -144 -295 -204 -295 -221 0 -8 67 -71 149 -141 83 -70 151 -134 153
-143 2 -8 2 -305 0 -659 -2 -602 -8 -720 -28 -587 -9 60 -25 77 -119 128 l-80
44 -5 350 -5 351 -39 40 c-22 23 -48 43 -58 47 -17 5 -18 27 -18 363 l0 357
48 45 c26 25 129 114 230 197 l183 152 141 0 c122 0 140 -2 128 -14z m3309
-43 c36 -32 86 -77 111 -100 25 -23 96 -86 159 -140 112 -96 143 -130 104
-116 -10 3 -25 12 -34 20 -9 7 -19 11 -22 8 -4 -3 -5 -2 -3 1 5 7 -53 59 -152
138 -40 32 -102 85 -138 118 -72 68 -98 77 -224 78 -64 0 -79 4 -105 25 l-30
24 134 1 134 0 66 -57z m1389 -1005 l2 -418 -67 1 c-78 1 -115 9 -121 27 -2 8
11 12 43 12 l46 0 -3 68 -3 67 -50 0 -50 0 1 -63 1 -63 -56 54 c-31 30 -73 66
-94 80 -21 14 -72 57 -113 97 l-74 72 -2 127 c-2 106 -1 268 1 333 1 24 19 25
291 24 l245 -1 3 -417z m-4429 6 c2 -2 -10 -7 -28 -10 -29 -6 -32 -10 -29 -38
2 -17 8 -31 15 -31 6 0 15 -3 19 -7 4 -5 -38 -8 -94 -8 l-102 0 0 49 c0 39 4
50 18 53 20 5 195 -2 201 -8z m399 6 c23 0 42 -4 42 -10 0 -5 -13 -10 -30 -10
-28 0 -30 -2 -30 -40 l0 -40 -98 0 -97 0 2 53 c0 28 2 54 2 56 1 2 38 1 84 -2
45 -4 101 -7 125 -7z m415 4 c43 -4 77 -11 77 -17 0 -5 -7 -6 -16 -3 -9 4 -26
4 -37 0 -16 -5 -19 -12 -14 -45 l5 -39 -94 0 -93 0 1 48 c0 26 2 50 5 55 5 9
65 9 166 1z m516 -10 c2 -2 -13 -4 -33 -4 l-38 0 4 -42 3 -43 -88 -3 -87 -3 0
50 c0 30 5 51 13 55 13 5 219 -4 226 -10z m364 5 c92 -1 96 -2 45 -13 -25 -6
-28 -11 -28 -46 l0 -40 -90 0 -90 0 0 34 c0 19 -3 41 -6 49 -4 11 2 17 23 20
15 2 34 2 41 0 8 -1 55 -3 105 -4z m500 1 c27 0 46 -4 43 -9 -3 -4 -16 -8 -28
-7 -29 2 -38 -10 -38 -51 l0 -33 -94 0 -94 0 1 48 c1 26 6 51 12 55 5 4 42 6
80 3 39 -3 92 -5 118 -6z m392 0 c55 -2 57 -3 28 -11 -18 -5 -35 -15 -39 -21
-5 -8 -2 -9 10 -5 13 5 17 3 13 -7 -3 -8 2 -20 11 -28 12 -10 14 -10 8 0 -4 7
0 19 8 28 15 14 16 12 16 -20 l0 -36 -105 0 -105 0 0 55 0 54 48 -3 c26 -2 74
-5 107 -6z m356 -626 c1 -580 0 -630 -16 -639 -9 -5 -37 -29 -61 -53 l-44 -43
0 680 0 680 58 3 c31 2 58 2 60 2 1 -1 3 -284 3 -630z m-3333 -256 l-3 -883
-57 -3 -58 -3 0 886 0 885 60 0 60 0 -2 -882z m-724 724 c6 -1 5 -7 -2 -14 -9
-9 -12 -102 -12 -355 l0 -343 -55 0 c-50 0 -55 2 -55 23 0 20 -4 22 -52 21
-46 -1 -53 -4 -56 -22 -3 -20 -10 -22 -67 -22 -58 0 -64 2 -67 23 -3 19 -10
22 -51 25 -46 3 -48 2 -59 -29 -10 -29 -13 -31 -47 -25 -20 3 -48 6 -63 6 -18
0 -26 4 -23 13 10 26 -11 38 -61 35 l-49 -3 -6 -70 c-3 -44 -14 -85 -27 -110
-21 -37 -22 -52 -22 -283 0 -233 -1 -244 -20 -249 -10 -3 -23 -16 -27 -29 -6
-18 -12 -21 -23 -14 -12 7 -15 39 -17 165 -2 116 -7 163 -18 185 -13 25 -15
104 -15 549 l0 520 143 3 c147 3 735 3 751 0z m1057 -44 c5 -107 7 -1278 2
-1401 l-6 -168 -76 3 -76 3 -3 775 c-1 426 0 781 3 788 3 8 29 12 80 12 53 0
75 -4 76 -12z m54 -290 c-2 -167 -4 -429 -4 -582 -1 -154 -3 -277 -6 -274 -5
5 -7 855 -3 1045 2 56 2 100 1 99 -2 -1 -7 -20 -12 -42 l-9 -39 -1 48 c-1 41
2 47 19 47 19 0 20 -6 15 -302z m393 -485 l-3 -788 -97 -3 -98 -3 0 791 0 790
100 0 100 0 -2 -787z m437 16 c0 -424 3 -776 7 -782 4 -7 8 340 8 771 l0 783
22 -3 c12 -2 23 -9 26 -16 2 -8 -3 -10 -15 -6 -17 5 -17 5 -1 -6 17 -10 18
-58 18 -774 l-1 -763 -52 -7 c-66 -8 -151 -8 -171 0 -14 6 -16 84 -16 790 l0
784 88 0 87 0 0 -771z m466 749 l2 -23 4 23 c3 12 12 22 21 22 15 0 15 -2 2
-10 -8 -5 -10 -10 -4 -10 7 0 9 -86 5 -287 -7 -412 -7 -418 2 -860 l8 -403
-30 0 c-28 0 -29 2 -26 38 3 20 5 166 5 325 0 177 4 287 10 287 6 0 9 78 8
203 -2 192 -2 196 -9 82 -4 -73 -5 -2 -4 183 2 320 -2 442 -16 442 -5 0 -10
-352 -11 -782 l-3 -783 -80 0 -80 0 -3 788 -2 787 100 0 c97 0 100 -1 101 -22z
m431 -768 l-2 -790 -95 0 -95 0 0 790 0 790 98 0 97 0 -3 -790z m453 780 c-3
-5 -1 -10 4 -10 6 0 11 4 11 8 0 4 11 9 25 10 l25 2 -2 -623 c-2 -374 -5 -540
-8 -417 l-5 205 -5 -165 c-3 -93 -7 45 -8 318 -1 316 1 482 8 482 6 0 9 23 9
53 -1 28 -4 41 -6 27 -8 -42 -24 -49 -22 -10 3 41 -9 100 -20 100 -4 0 -8
-348 -7 -772 l1 -773 -92 -3 -93 -3 0 791 0 790 96 0 c61 0 93 -4 89 -10z
m399 -724 l-1 -734 -32 -56 c-31 -53 -35 -56 -72 -56 l-39 0 0 790 0 790 73 0
72 0 -1 -734z m1348 244 c93 -35 163 -120 170 -207 4 -48 -15 -52 -42 -8 -12
19 -25 35 -30 35 -10 0 -20 -51 -20 -101 0 -37 1 -39 33 -39 50 0 102 -18 123
-42 11 -13 13 -18 4 -13 -8 5 -21 10 -30 12 -8 1 -27 5 -43 9 -27 6 -27 6 -12
-22 16 -31 12 -63 -14 -106 -18 -33 -46 -36 -99 -9 -20 10 -49 21 -64 25 l-27
6 -3 142 -3 143 -28 9 c-54 19 -62 4 -65 -138 l-3 -127 -82 8 c-45 4 -120 7
-166 6 l-83 -3 7 28 c8 35 40 69 88 93 41 22 41 22 26 51 -16 31 5 117 41 167
66 91 204 126 322 81z m-5085 -346 c3 -8 11 -13 17 -11 15 6 14 8 15 -258 0
-252 0 -254 -22 -267 -16 -8 -17 8 -17 202 0 204 -1 210 -20 210 -11 0 -36 -7
-56 -15 l-35 -14 2 -240 1 -240 -29 -40 -28 -41 -292 0 c-161 0 -293 2 -293 4
0 2 -11 29 -25 59 l-25 56 83 -4 c140 -7 127 -36 127 279 0 292 2 305 54 326
11 5 137 9 279 9 224 1 258 -1 264 -15z m4963 -239 c117 -35 205 -78 226 -109
9 -15 14 -29 11 -32 -3 -3 -45 8 -94 24 -48 17 -128 36 -178 42 -121 16 -325
3 -414 -26 -10 -3 -5 -11 17 -24 18 -11 32 -22 32 -24 0 -2 -35 -23 -77 -47
-181 -98 -374 -281 -445 -422 l-24 -48 -23 55 c-13 31 -26 56 -30 56 -11 0
-31 -72 -31 -111 0 -19 9 -54 20 -78 l20 -43 -24 -77 c-37 -116 -50 -227 -43
-372 5 -112 9 -136 38 -205 17 -44 54 -112 80 -152 27 -40 49 -75 49 -78 0 -3
-21 -4 -47 -2 -45 3 -50 7 -103 70 -67 80 -139 221 -175 343 -32 109 -44 315
-26 435 35 222 145 436 302 585 145 138 284 210 489 256 124 28 332 21 450
-16z m-5933 -7 c14 -13 22 -30 20 -40 -3 -10 -1 -15 4 -12 9 5 1 -75 -8 -85
-2 -3 -55 -7 -118 -9 -105 -4 -115 -3 -121 14 -3 11 -17 47 -30 82 -13 34 -24
67 -24 73 0 8 36 10 126 6 114 -5 129 -8 151 -29z m6983 25 c0 -4 -14 -44 -31
-90 l-32 -83 -108 0 c-66 0 -109 -4 -109 -10 0 -5 -4 -10 -8 -10 -5 0 -10 31
-11 69 -2 60 1 72 24 99 l25 30 125 1 c69 1 125 -2 125 -6z m-1060 -214 c74
-16 168 -55 222 -92 40 -26 48 -37 48 -62 -1 -39 -31 -104 -63 -133 l-25 -24
-84 87 c-45 48 -122 119 -170 157 -49 39 -88 72 -88 74 0 8 112 3 160 -7z
m-218 -91 c71 -58 288 -269 288 -280 0 -4 -26 -15 -57 -24 -113 -33 -275 7
-353 86 -45 46 -82 125 -78 168 3 34 8 40 63 69 33 18 63 33 67 33 3 0 35 -23
70 -52z m-302 -140 c23 -91 93 -183 179 -234 25 -15 31 -24 27 -44 -3 -14 -10
-61 -16 -105 -20 -148 -51 -330 -60 -352 l-9 -22 -68 35 c-164 86 -335 240
-384 346 -13 29 3 66 80 183 43 67 210 245 228 245 5 0 15 -24 23 -52z m-5420
-15 c42 -104 178 -366 248 -477 169 -268 452 -589 647 -733 l30 -22 -90 -1
-90 0 -101 103 c-239 243 -429 501 -579 791 -79 150 -158 323 -169 369 -6 26
-5 27 37 27 l43 0 24 -57z m1275 29 c73 -37 125 -113 125 -182 0 -42 -14 -38
-43 13 -14 24 -33 49 -41 57 -14 11 -16 8 -16 -26 0 -22 -3 -63 -6 -91 l-7
-53 48 0 c55 0 111 -24 127 -54 10 -20 10 -20 -14 1 -15 15 -43 25 -73 29 -48
5 -49 5 -32 -14 25 -28 21 -75 -10 -113 -28 -33 -100 -89 -114 -89 -5 0 -10
57 -11 128 l-3 127 -41 3 c-41 3 -41 2 -47 -35 -4 -21 -7 -69 -7 -106 l0 -68
-27 19 c-16 11 -38 30 -50 41 -12 12 -26 21 -30 21 -4 0 -26 -19 -48 -42 -26
-26 -32 -37 -17 -29 12 6 22 9 22 6 0 -15 -8 -19 -34 -20 -16 0 -31 -5 -33
-11 -2 -7 5 -10 20 -7 14 3 28 -1 32 -7 5 -9 2 -10 -13 -6 -11 4 -23 2 -27 -4
-3 -5 -2 -10 3 -10 5 0 17 -12 26 -27 10 -17 -2 -8 -28 20 -87 93 -86 173 4
241 53 41 59 50 35 60 -32 12 -8 123 37 176 19 23 68 55 103 68 44 17 144 8
190 -16z m5575 17 c0 -30 -160 -371 -227 -484 -165 -278 -360 -531 -565 -733
l-64 -63 -87 3 -86 3 115 100 c203 175 392 398 551 649 65 102 230 429 253
499 11 36 13 37 61 37 28 0 49 -5 49 -11z m-4739 -206 c26 -22 49 -66 49 -93
0 -19 -6 -20 -120 -20 l-120 0 0 58 c0 32 3 62 7 65 3 4 42 7 85 7 59 0 83 -4
99 -17z m420 5 c20 -17 59 -85 59 -104 0 -11 -25 -14 -140 -14 l-140 0 0 28
c0 15 5 44 11 65 l10 37 93 0 c59 0 98 -5 107 -12z m466 -10 c27 -30 43 -62
43 -87 0 -20 -5 -21 -136 -21 l-137 0 7 56 c4 31 9 61 12 65 3 5 47 9 98 9 83
0 95 -2 113 -22z m430 7 c26 -18 63 -76 63 -99 0 -14 -17 -16 -136 -16 l-135
0 7 58 c3 31 8 60 11 65 8 14 167 8 190 -8z m455 -6 c27 -20 58 -72 58 -99 0
-6 -49 -10 -135 -10 l-135 0 0 58 c0 32 3 62 7 65 3 4 44 7 91 7 70 0 89 -4
114 -21z m472 -7 c14 -16 29 -45 33 -66 l6 -37 -134 3 -134 3 3 50 c4 77 1 75
105 75 89 0 94 -1 121 -28z m-3675 -2 l115 0 -26 -27 c-36 -39 -56 -82 -64
-140 -6 -46 1 -84 32 -180 5 -15 4 -16 -5 -3 -9 12 -11 11 -11 -9 0 -37 -8
-21 -14 29 -3 25 -10 68 -16 97 l-11 51 -73 7 c-39 4 -83 6 -96 5 -51 -4 -51
-5 -49 80 2 91 11 104 69 95 19 -2 86 -5 149 -5z m5371 -163 c0 -103 -16 -181
-55 -262 -48 -101 -140 -205 -182 -205 -28 0 -126 21 -135 30 -4 3 1 54 12
112 11 58 28 166 38 239 l18 134 79 -3 c46 -1 104 4 135 12 94 24 90 26 90
-57z m-1780 -57 c0 -14 -118 -130 -133 -131 -51 -3 -2090 0 -2093 3 -6 7 -13
121 -8 130 8 12 2234 10 2234 -2z m895 -246 c34 -34 87 -78 118 -99 32 -21 54
-42 50 -45 -27 -25 -218 -49 -287 -36 l-36 7 0 90 c0 50 5 122 12 161 l12 72
35 -45 c19 -24 63 -72 96 -105z m-722 -3 c115 0 117 0 117 -23 0 -19 -2 -20
-10 -8 -9 13 -10 13 -10 0 0 -13 -1 -13 -10 0 -5 8 -12 12 -15 8 -4 -3 -20 -2
-37 3 -17 5 -58 5 -92 0 -33 -5 -71 -5 -83 0 -16 6 -27 4 -39 -8 -15 -15 -109
-17 -1118 -19 -605 -2 -1222 0 -1370 3 l-270 6 29 24 28 25 1381 -5 c760 -3
1434 -6 1499 -6z m-253 -161 c9 -6 6 -12 -11 -21 -20 -12 -227 -14 -1194 -14
l-1170 0 -3 23 -4 23 1185 -2 c651 0 1190 -5 1197 -9z m-2664 -26 l149 -7 -3
-116 c-4 -146 -22 -191 -96 -236 -40 -24 -63 -30 -121 -33 -40 -2 -97 1 -127
7 -49 11 -66 22 -179 123 -68 62 -144 132 -168 155 -39 38 -50 43 -90 43 -32
0 -56 7 -83 26 -21 15 -38 31 -38 35 0 10 538 12 756 3z m2548 -132 c11 -19
-53 -42 -115 -41 -35 0 -531 -1 -1101 -3 l-1038 -4 0 28 0 28 1124 0 c619 0
1127 -4 1130 -8z m-215 -168 c2 -2 1 -7 -3 -11 -4 -5 -464 -9 -1022 -11 -966
-2 -1014 -2 -1014 15 0 17 48 18 1017 15 560 -2 1019 -5 1022 -8z m2083 -305
c74 -16 167 -63 227 -116 64 -56 118 -162 126 -248 l5 -60 -25 73 c-43 125
-112 209 -210 259 -108 56 49 53 -2693 53 -1710 0 -2558 -3 -2589 -10 -160
-36 -279 -166 -303 -331 -13 -84 -12 -346 0 -432 10 -68 36 -129 84 -199 14
-21 22 -38 18 -38 -19 0 -74 71 -104 135 l-33 70 -3 240 c-2 156 1 255 8 285
14 56 50 129 87 175 38 48 139 113 210 135 55 17 172 18 2600 19 1848 1 2556
-2 2595 -10z m-2657 -281 c31 -37 28 -71 -11 -105 -52 -47 -134 -11 -134 58 0
78 94 108 145 47z m1185 -93 c0 -63 2 -115 5 -115 3 0 23 9 45 20 85 43 184
16 238 -65 26 -40 31 -43 37 -26 9 31 80 89 122 100 100 28 188 6 257 -65 37
-38 50 -70 61 -145 6 -46 5 -46 -26 -53 -17 -3 -94 -6 -170 -6 -154 0 -166 -6
-108 -54 40 -34 115 -39 169 -11 15 8 30 10 36 7 20 -15 65 -83 60 -91 -3 -4
-37 -19 -76 -31 -122 -39 -245 -6 -306 81 -28 41 -36 47 -33 27 1 -7 1 -37 0
-65 l-1 -53 -65 0 -65 0 0 140 c0 153 -7 182 -51 200 -34 14 -65 8 -99 -21
-24 -21 -25 -25 -28 -170 l-3 -149 -65 0 -64 0 0 330 0 330 65 0 65 0 0 -115z
m-3035 3 c3 -51 5 -194 3 -318 l-3 -225 -72 -3 -73 -3 -2 196 -3 195 -68 -110
-68 -110 -59 0 c-46 0 -59 4 -65 18 -11 30 -120 201 -127 202 -5 0 -8 -88 -8
-195 l0 -195 -64 0 -64 0 -6 68 c-3 37 -5 178 -3 315 l2 247 80 0 80 0 83
-140 c46 -77 87 -142 91 -144 4 -3 34 39 66 92 32 53 74 121 92 150 l33 52 74
0 74 0 7 -92z m705 -118 c5 -191 7 -208 28 -241 53 -86 185 -83 238 5 17 28
19 53 19 233 l0 201 45 5 c25 3 56 5 70 4 l25 -2 3 -205 c3 -232 -6 -281 -64
-348 -95 -111 -301 -121 -411 -19 -80 73 -87 100 -91 340 -2 114 -1 215 2 223
4 12 20 14 68 12 l63 -3 5 -205z m3401 -29 l-6 -63 -44 -3 c-55 -4 -85 -20
-100 -52 -6 -13 -11 -80 -11 -153 l0 -130 -65 0 -65 0 0 230 0 230 65 0 c63 0
65 -1 65 -25 l0 -26 25 25 c14 14 42 28 63 31 20 4 44 8 52 9 25 4 28 -6 21
-73z m-3874 -68 c31 -73 59 -133 62 -133 3 0 28 59 55 130 32 86 54 131 66
135 18 6 130 5 130 -1 0 -2 -30 -72 -66 -156 -37 -84 -75 -175 -86 -203 -32
-81 -87 -180 -118 -212 -41 -42 -105 -59 -167 -44 -68 17 -77 24 -64 49 6 11
12 34 13 51 1 17 3 31 4 31 0 0 15 -5 33 -11 46 -16 77 -4 107 41 l26 39 -96
199 c-53 110 -96 205 -96 211 0 8 22 11 70 9 l71 -3 56 -132z m1337 104 c64
-49 70 -71 74 -264 l4 -173 -66 0 -66 0 -1 113 c-1 193 -6 210 -66 226 -41 11
-85 -5 -103 -38 -5 -11 -10 -83 -10 -160 l0 -141 -65 0 -65 0 0 230 0 230 60
0 c53 0 60 -2 60 -19 0 -19 2 -18 43 5 59 35 148 31 201 -9z m652 18 c80 -24
81 -26 48 -79 -16 -25 -32 -46 -35 -46 -4 0 -20 7 -35 15 -40 21 -130 20 -138
-1 -10 -25 0 -32 77 -55 142 -43 177 -72 177 -148 0 -123 -142 -184 -306 -132
-38 12 -77 28 -88 36 -18 14 -18 16 13 50 17 20 31 40 31 45 0 5 16 0 35 -11
49 -29 145 -37 168 -14 25 25 9 39 -70 60 -82 21 -138 51 -159 83 -23 35 -22
107 2 140 49 66 169 91 280 57z m272 -11 c3 -21 3 -21 49 3 151 76 323 -34
323 -207 0 -74 -14 -118 -51 -163 -66 -80 -185 -106 -276 -61 l-43 21 0 -93 0
-94 -65 0 -65 0 0 309 0 308 63 -1 c55 -1 62 -4 65 -22z m1959 5 c81 -39 143
-147 132 -229 l-4 -25 -162 -3 c-168 -3 -179 -6 -150 -43 7 -9 22 -21 34 -27
31 -17 119 -15 153 3 28 15 29 14 66 -30 22 -27 33 -49 28 -55 -17 -16 -133
-50 -172 -50 -103 0 -198 58 -238 144 -57 122 -8 262 111 317 56 26 146 25
202 -2z m-2595 -219 l-3 -230 -64 0 -65 0 -1 178 c-1 97 -3 201 -4 230 l-3 52
72 0 71 0 -3 -230z"/>
<path d="M4905 8828 c-350 -166 -1499 -739 -1517 -755 -21 -19 -25 -95 -5
-110 6 -6 86 -34 177 -63 91 -28 250 -81 355 -116 104 -35 190 -64 192 -64 2
0 3 -61 3 -136 l0 -137 34 -32 c19 -17 69 -58 112 -90 73 -55 78 -58 88 -39 6
10 31 39 56 64 156 156 521 251 846 221 256 -24 474 -101 577 -203 29 -29 60
-64 68 -77 l16 -25 84 66 c151 119 139 96 139 251 0 101 3 136 13 140 7 3 80
28 162 57 83 29 156 57 163 63 8 7 11 40 10 111 -1 55 2 116 6 134 16 68 26
15 26 -137 l0 -158 -29 -6 c-18 -4 -41 -21 -58 -43 l-28 -37 -3 -193 c-4 -214
2 -240 58 -269 37 -19 120 -19 165 -1 67 28 75 57 75 261 0 189 -1 193 -51
267 -11 16 -15 37 -12 68 l5 45 101 33 c56 17 108 35 115 40 18 12 19 86 3
106 -13 15 -1675 847 -1717 859 -12 4 -97 -31 -229 -95z m221 -38 c5 -5 149
-79 319 -165 336 -168 673 -340 681 -348 3 -2 -2 -7 -11 -11 -10 -3 -14 -2
-10 5 4 6 1 9 -6 8 -23 -3 -119 43 -112 54 3 5 0 8 -8 5 -11 -4 -383 175 -732
352 -110 56 -127 60 -127 27 0 -19 -65 -55 -527 -287 -291 -146 -603 -305
-696 -353 l-167 -88 -57 21 c-31 12 -61 24 -65 27 -5 3 15 18 44 35 62 34
1450 727 1459 728 3 0 9 -4 15 -10z m-6 -789 l0 -238 -97 -7 c-211 -15 -384
-63 -600 -167 -79 -38 -149 -66 -157 -63 -31 12 -36 55 -29 234 7 153 10 175
25 175 9 0 24 8 35 17 22 19 196 107 273 138 30 12 80 32 110 45 150 63 295
101 393 104 l47 1 0 -239z m1424 -360 c17 -18 16 -19 -2 -25 -29 -10 -34 -28
-39 -156 -2 -63 -6 -117 -9 -119 -2 -2 -10 2 -19 9 -24 20 -22 257 3 288 21
27 44 28 66 3z"/>
<path d="M1691 5924 c-12 -20 -36 -41 -56 -50 -19 -8 -35 -16 -35 -19 0 -2 18
-14 41 -25 28 -15 45 -33 56 -57 l15 -36 21 39 c14 24 37 46 61 58 l39 19 -29
15 c-38 19 -74 52 -74 68 0 28 -19 22 -39 -12z"/>
<path d="M1528 5543 l-28 -4 0 -95 0 -95 68 3 67 3 3 93 c1 50 -1 92 -5 92 -4
1 -24 2 -43 4 -19 2 -47 1 -62 -1z"/>
<path d="M1495 5258 c-3 -8 -4 -83 -3 -168 l3 -154 73 -4 72 -3 -2 168 -3 168
-68 3 c-49 2 -69 -1 -72 -10z"/>
<path d="M8371 6608 c-21 -69 -54 -104 -121 -129 l-60 -22 57 -23 c71 -29 88
-46 117 -118 26 -62 28 -62 45 1 15 54 59 98 121 120 l48 17 -51 18 c-62 21
-102 62 -118 120 -18 61 -24 64 -38 16z"/>
<path d="M8587 5533 c-9 -8 -9 -130 -1 -160 6 -21 12 -23 75 -23 l69 0 0 95 0
95 -68 0 c-38 0 -72 -3 -75 -7z"/>
<path d="M8584 5257 c-2 -7 -3 -82 -2 -167 l3 -155 70 0 70 0 3 168 2 167 -70
0 c-49 0 -72 -4 -76 -13z"/>
<path d="M5071 6708 c-170 -30 -276 -231 -200 -382 45 -91 149 -156 250 -156
57 0 139 35 182 77 51 49 76 100 83 172 11 97 -47 201 -142 257 -51 30 -116
42 -173 32z m120 -90 c59 -33 63 -74 7 -85 -16 -3 -33 -14 -39 -24 -15 -29
-67 -51 -110 -47 -28 3 -39 -1 -42 -13 -2 -8 -18 -25 -35 -37 l-30 -22 -7 40
c-12 69 22 144 84 186 47 32 118 33 172 2z"/>
<path d="M4707 6644 c-34 -18 -29 -31 5 -14 55 27 -19 -22 -82 -55 -36 -18
-103 -56 -150 -85 -47 -29 -121 -73 -165 -98 -44 -24 -121 -69 -172 -99 -54
-32 -97 -52 -104 -47 -8 4 -9 3 -5 -4 4 -7 -22 -27 -66 -52 -40 -23 -89 -51
-108 -62 -19 -12 -78 -46 -130 -77 l-95 -56 115 -5 c102 -4 922 -5 2370 -1
l485 1 -85 51 c-47 28 -200 119 -342 202 -141 84 -301 179 -357 212 -55 33
-133 78 -174 100 -40 23 -94 55 -120 72 -26 18 -47 30 -47 27 0 -3 5 -25 11
-50 10 -37 20 -50 73 -88 33 -24 76 -60 95 -79 32 -34 32 -35 12 -42 -38 -12
-80 5 -116 48 l-35 41 0 -43 c0 -32 6 -47 25 -65 22 -21 38 -24 133 -28 65 -4
121 -12 142 -21 40 -18 117 -83 85 -72 -11 4 -63 13 -115 21 -52 7 -111 18
-130 23 l-35 10 30 -25 c64 -53 128 -75 242 -85 59 -5 124 -11 142 -15 41 -7
115 -43 151 -73 l25 -20 -25 -1 c-24 0 -111 -20 -155 -36 -11 -3 4 10 33 31
28 21 52 41 52 44 0 3 -27 8 -60 9 -54 3 -66 0 -117 -32 -75 -45 -133 -58
-268 -57 -116 1 -201 17 -268 52 l-38 19 -65 -31 c-88 -42 -175 -53 -264 -35
-68 15 -121 36 -151 62 -14 13 -24 10 -80 -16 -81 -38 -147 -50 -269 -50 -133
0 -194 13 -255 55 -42 30 -59 35 -105 35 -73 0 -93 -13 -54 -33 16 -8 37 -23
46 -34 16 -18 14 -18 -68 2 l-84 20 22 19 c56 46 129 69 248 78 128 9 188 24
270 68 l55 29 -40 0 c-49 1 -242 -26 -258 -36 -7 -3 -3 4 8 16 42 48 103 68
242 80 111 10 143 30 143 89 l0 35 -37 -36 c-31 -31 -43 -37 -80 -37 -23 0
-43 4 -43 8 0 11 54 61 128 116 34 26 63 55 64 64 7 81 8 79 -35 56z"/>
<path d="M4605 6249 c-56 -38 -185 -97 -228 -105 l-42 -7 40 -13 c48 -15 124
-17 144 -5 10 6 25 4 42 -5 56 -28 183 -12 242 32 22 16 21 16 -13 10 -92 -16
-158 -18 -180 -6 -21 11 -22 13 -6 22 9 5 34 7 55 3 l39 -6 -25 50 c-14 28
-28 51 -32 50 -3 0 -19 -9 -36 -20z"/>
<path d="M5570 6227 c-14 -23 -26 -45 -28 -49 -2 -5 18 -8 45 -9 l48 -1 -35
-15 c-34 -15 -111 -14 -170 2 l-25 7 25 -21 c38 -30 102 -44 177 -38 48 3 70
10 80 23 12 16 13 16 19 0 6 -16 15 -17 73 -11 118 12 121 15 38 41 -42 14
-103 44 -141 69 -36 25 -69 45 -73 45 -4 0 -19 -19 -33 -43z"/>
<path d="M2060 5180 l0 -81 53 3 52 3 0 75 0 75 -52 3 -53 3 0 -81z"/>
<path d="M2302 5183 l3 -78 53 -3 52 -3 0 80 0 81 -55 0 -56 0 3 -77z"/>
<path d="M2540 5226 c0 -18 3 -53 6 -77 l6 -44 49 3 49 4 0 74 0 74 -55 0 -55
0 0 -34z"/>
<path d="M2060 4930 l0 -80 50 0 50 0 0 80 0 80 -50 0 -50 0 0 -80z"/>
<path d="M2302 4933 l3 -78 53 -3 52 -3 0 80 0 81 -55 0 -56 0 3 -77z"/>
<path d="M2542 4933 l3 -78 53 -3 52 -3 0 80 0 81 -56 0 -56 0 4 -77z"/>
<path d="M2268 4432 c-16 -3 -18 -22 -18 -216 0 -234 5 -256 59 -256 49 0 51
9 51 230 0 185 -2 209 -17 222 -21 18 -51 26 -75 20z"/>
<path d="M3164 2950 c-96 -30 -113 -163 -28 -229 48 -38 155 -20 187 31 69
107 -34 236 -159 198z m109 -65 c34 -33 37 -90 6 -124 -31 -33 -104 -27 -132
11 -64 86 47 186 126 113z"/>
<path d="M5718 1851 c-45 -39 -54 -75 -32 -130 19 -49 55 -71 114 -71 68 0
122 70 106 135 -12 47 -57 87 -106 92 -39 4 -50 0 -82 -26z"/>
</g>
</svg>
